<?xml version="1.0" encoding="UTF-8" standalone="no"?>
<svg
   width="375pt"
   height="374.999991pt"
   viewBox="0 0 375 374.999991"
   version="1.2"
   id="svg16"
   sodipodi:docname="Intrepid Transparent Triangles.svg"
   inkscape:version="1.2-dev (7f65670, 2021-12-08)"
   xmlns:inkscape="http://www.inkscape.org/namespaces/inkscape"
   xmlns:sodipodi="http://sodipodi.sourceforge.net/DTD/sodipodi-0.dtd"
   xmlns="http://www.w3.org/2000/svg"
   xmlns:svg="http://www.w3.org/2000/svg">
  <sodipodi:namedview
     id="namedview18"
     pagecolor="#505050"
     bordercolor="#ffffff"
     borderopacity="1"
     inkscape:pageshadow="0"
     inkscape:pageopacity="0"
     inkscape:pagecheckerboard="1"
     inkscape:blackoutopacity="0.0"
     inkscape:document-units="pt"
     showgrid="false"
     inkscape:zoom="1.384"
     inkscape:cx="249.63873"
     inkscape:cy="250"
     inkscape:window-width="3840"
     inkscape:window-height="1537"
     inkscape:window-x="2552"
     inkscape:window-y="-8"
     inkscape:window-maximized="1"
     inkscape:current-layer="svg16" />
  <defs
     id="defs5">
    <clipPath
       id="clip1">
      <path
         d="M 25 70.855469 L 350 70.855469 L 350 302 L 25 302 Z M 25 70.855469 "
         id="path2" />
    </clipPath>
  </defs>
  <g
     clip-path="url(#clip1)"
     clip-rule="nonzero"
     id="g13"
     transform="translate(-0.070338,1.1756809)">
    <path
       style="fill:#59c278;fill-opacity:1;fill-rule:nonzero;stroke:none"
       d="M 344.03906,176.625 182.28125,72.703125 c -0.87109,-0.5625 -1.80469,-1 -2.79297,-1.3125 -0.98828,-0.3125 -2.00391,-0.484375 -3.04297,-0.523437 -1.03515,-0.03906 -2.05859,0.0625 -3.07031,0.296874 -1.01172,0.238282 -1.97266,0.605469 -2.88281,1.101563 -0.91016,0.496094 -1.74219,1.105469 -2.48828,1.824219 -0.7461,0.71875 -1.38672,1.523437 -1.91797,2.417968 -0.52735,0.890626 -0.9336,1.835938 -1.20703,2.835938 -0.27344,1 -0.41407,2.019531 -0.41407,3.058594 V 150.32031 L 43.632812,72.703125 c -0.871093,-0.5625 -1.804687,-1 -2.792968,-1.3125 -0.992188,-0.3125 -2.003906,-0.484375 -3.042969,-0.523437 -1.035156,-0.03906 -2.0625,0.0625 -3.070313,0.296874 -1.011718,0.238282 -1.972656,0.605469 -2.882812,1.101563 -0.914062,0.496094 -1.742188,1.105469 -2.488281,1.824219 -0.75,0.71875 -1.386719,1.523437 -1.917969,2.417968 -0.53125,0.890626 -0.933594,1.835938 -1.207031,2.835938 -0.277344,1 -0.414063,2.019531 -0.414063,3.058594 V 290.24609 c 0,1.03907 0.136719,2.0586 0.414063,3.0586 0.273437,1 0.675781,1.94531 1.207031,2.83593 0.53125,0.89454 1.167969,1.69922 1.917969,2.41797 0.746093,0.72266 1.574219,1.32813 2.488281,1.82422 0.910156,0.4961 1.871094,0.86328 2.882812,1.10156 1.007813,0.23829 2.035157,0.33594 3.070313,0.29688 1.039063,-0.0352 2.050781,-0.21094 3.042969,-0.52344 0.988281,-0.3125 1.921875,-0.74609 2.792968,-1.30859 l 120.832028,-77.6211 v 67.91797 c 0,1.03907 0.14063,2.0586 0.41407,3.0586 0.27343,1 0.67968,1.94531 1.20703,2.83593 0.53125,0.89454 1.17187,1.69922 1.91797,2.41797 0.74609,0.72266 1.57812,1.32813 2.48828,1.82422 0.91015,0.4961 1.87109,0.86328 2.88281,1.10156 1.01172,0.23829 2.03516,0.33594 3.07031,0.29688 1.03906,-0.0352 2.05469,-0.21094 3.04297,-0.52344 0.98828,-0.3125 1.92188,-0.74609 2.79297,-1.30859 L 344.03906,196.02344 c 0.40625,-0.26172 0.78906,-0.54297 1.16016,-0.85157 0.36719,-0.3125 0.71484,-0.64062 1.04297,-0.99218 0.32422,-0.35157 0.6289,-0.72266 0.91015,-1.11328 0.28125,-0.39063 0.53516,-0.79688 0.76563,-1.21875 0.23047,-0.42188 0.43359,-0.85547 0.60937,-1.30469 0.17578,-0.44531 0.32032,-0.90235 0.44141,-1.36719 0.11719,-0.46875 0.20703,-0.9375 0.26562,-1.41406 0.0625,-0.47656 0.0899,-0.95703 0.0899,-1.4375 0,-0.48047 -0.0274,-0.95703 -0.0899,-1.4336 -0.0586,-0.47656 -0.14843,-0.94921 -0.26562,-1.41406 -0.12109,-0.46484 -0.26563,-0.92187 -0.44141,-1.37109 -0.17578,-0.44531 -0.3789,-0.88281 -0.60937,-1.30469 -0.23047,-0.42187 -0.48438,-0.82422 -0.76563,-1.21484 -0.28125,-0.39063 -0.58593,-0.76172 -0.91015,-1.11328 -0.32813,-0.35547 -0.67578,-0.6836 -1.04297,-0.99219 -0.3711,-0.3086 -0.75391,-0.59375 -1.16016,-0.85547 z M 48.925781,103.55469 177.75391,186.32422 48.925781,269.09375 Z M 187.57422,269.09375 v -61.61328 l 17.8164,-11.45703 c 0.40235,-0.26172 0.78907,-0.54297 1.15625,-0.85157 0.3711,-0.3125 0.71875,-0.64062 1.04297,-0.99218 0.32813,-0.35157 0.63282,-0.72266 0.91407,-1.11328 0.28125,-0.39063 0.53515,-0.79688 0.76562,-1.21875 0.23047,-0.42188 0.42969,-0.85547 0.60547,-1.30469 0.17578,-0.44531 0.32422,-0.90235 0.44141,-1.36719 0.12109,-0.46875 0.21093,-0.9375 0.26953,-1.41406 0.0586,-0.47656 0.0898,-0.95703 0.0898,-1.4375 0,-0.48047 -0.0312,-0.95703 -0.0898,-1.4336 -0.0586,-0.47656 -0.14844,-0.94921 -0.26953,-1.41406 -0.11719,-0.46484 -0.26563,-0.92187 -0.44141,-1.37109 -0.17578,-0.44531 -0.375,-0.88281 -0.60547,-1.30469 -0.23047,-0.42187 -0.48437,-0.82422 -0.76562,-1.21484 -0.28125,-0.39063 -0.58594,-0.76172 -0.91407,-1.11328 -0.32422,-0.35547 -0.67187,-0.6836 -1.04297,-0.99219 -0.36718,-0.3086 -0.7539,-0.59375 -1.15625,-0.85547 l -17.8164,-11.45313 v -61.61718 l 128.82812,82.76953 z m 0,0"
       id="path11" />
  </g>
</svg>
